<?xml version="1.0" standalone="no"?>
<!DOCTYPE svg PUBLIC "-//W3C//DTD SVG 20010904//EN"
 "http://www.w3.org/TR/2001/REC-SVG-20010904/DTD/svg10.dtd">
<svg version="1.0" xmlns="http://www.w3.org/2000/svg"
 width="1080.000000pt" height="1080.000000pt" viewBox="0 0 1080.000000 1080.000000"
 preserveAspectRatio="xMidYMid meet">
<metadata>
Created by potrace 1.14, written by Peter Selinger 2001-2017
</metadata>
<g transform="translate(0.000000,1080.000000) scale(0.100000,-0.100000)"
fill="#000000" stroke="none">
<path d="M4985 9793 c-224 -390 -429 -744 -455 -788 -26 -44 -59 -100 -72
-125 -14 -25 -101 -175 -193 -335 -183 -317 -301 -522 -447 -775 -53 -91 -205
-354 -338 -585 -134 -231 -253 -438 -265 -460 -13 -22 -47 -80 -76 -130 -28
-49 -65 -115 -82 -145 -16 -30 -36 -62 -43 -71 -8 -8 -14 -18 -14 -22 0 -5
-114 -205 -252 -442 -164 -282 -171 -293 -264 -455 -36 -63 -73 -128 -83 -145
-10 -16 -139 -239 -286 -495 -248 -431 -342 -592 -365 -630 -5 -8 -24 -42 -43
-75 -40 -70 -46 -80 -164 -285 -49 -85 -134 -231 -188 -325 -54 -93 -139 -240
-188 -325 -49 -85 -97 -168 -107 -185 -9 -16 -120 -208 -245 -425 -210 -362
-275 -477 -275 -483 0 -2 2187 -3 4860 -3 4117 0 4860 2 4855 14 -3 7 -38 71
-78 140 -41 70 -85 147 -99 172 -14 25 -166 288 -338 585 -172 297 -322 556
-333 575 -10 19 -95 166 -187 325 -92 160 -177 306 -188 325 -10 19 -65 113
-121 209 -55 96 -101 176 -101 178 0 2 -11 20 -23 41 -20 31 -180 307 -685
1182 -30 52 -189 327 -352 610 -164 283 -307 531 -317 550 -11 19 -71 123
-133 230 -62 107 -124 215 -138 240 -13 25 -37 65 -52 90 -15 25 -130 223
-255 440 -126 217 -236 409 -245 425 -10 17 -61 106 -115 199 -53 93 -106 183
-116 200 -10 17 -26 45 -35 61 -9 17 -109 190 -222 385 -113 195 -215 373
-228 395 -155 274 -486 841 -492 843 -5 1 -192 -316 -417 -705z"/>
<path d="M2127 1594 c-1 -1 -29 -4 -62 -7 -132 -13 -234 -59 -322 -144 -77
-74 -125 -158 -149 -258 -20 -84 -27 -146 -26 -250 0 -216 55 -378 167 -490
108 -109 235 -156 425 -157 58 -1 123 2 145 6 216 36 366 164 430 368 31 97
36 136 39 269 8 340 -146 576 -419 644 -49 12 -219 27 -228 19z m188 -252
c117 -59 174 -185 176 -386 2 -153 -17 -237 -71 -325 -53 -85 -138 -122 -268
-117 -199 8 -297 142 -301 415 -4 229 69 378 207 424 67 22 204 17 257 -11z"/>
<path d="M6107 1594 c-1 -1 -29 -4 -62 -7 -236 -24 -410 -173 -469 -402 -50
-197 -35 -437 37 -592 95 -206 274 -306 542 -305 204 0 337 51 445 169 57 61
112 167 130 249 7 27 14 58 16 69 10 40 11 242 3 305 -21 148 -76 268 -164
357 -61 61 -171 125 -235 137 -14 2 -41 7 -60 10 -32 7 -178 14 -183 10z m179
-250 c126 -51 186 -183 186 -406 0 -274 -94 -410 -292 -425 -122 -9 -223 34
-276 119 -54 86 -69 154 -68 313 0 156 17 228 69 307 72 109 240 150 381 92z"/>
<path d="M7557 1594 c-1 -1 -27 -3 -57 -5 -264 -13 -461 -196 -520 -484 -27
-132 -12 -344 35 -483 51 -150 179 -273 322 -311 148 -40 353 -30 508 23 l40
14 1 112 2 112 -27 -6 c-14 -3 -64 -16 -111 -29 -275 -74 -439 2 -490 229 -17
73 -19 228 -4 306 26 136 80 220 170 264 95 46 214 39 351 -22 69 -30 71 -30
83 4 6 15 15 36 20 47 15 31 50 125 50 133 0 13 -103 52 -185 71 -51 12 -183
29 -188 25z"/>
<path d="M9810 1589 c-92 -10 -118 -17 -177 -45 -118 -58 -184 -160 -188 -291
-4 -129 30 -211 120 -291 48 -42 61 -50 237 -139 147 -75 179 -105 185 -168 4
-41 0 -56 -19 -85 -59 -87 -224 -82 -470 14 -38 14 -68 22 -69 18 0 -4 -1 -60
-2 -125 l-2 -117 55 -21 c167 -63 394 -70 537 -18 69 26 106 50 151 98 99 107
117 289 40 416 -43 71 -114 124 -289 216 -84 44 -163 89 -176 101 -55 52 -49
137 13 185 33 25 44 27 123 27 71 0 104 -6 184 -34 54 -18 99 -31 101 -29 7 7
86 202 84 204 -7 6 -176 64 -203 70 -16 4 -57 9 -90 11 -33 3 -64 6 -70 7 -5
2 -39 0 -75 -4z"/>
<path d="M500 1463 l0 -113 173 0 173 0 0 -516 c-1 -284 1 -520 4 -524 3 -5
64 -8 135 -7 l130 2 0 520 0 520 173 3 173 2 -3 113 -3 112 -477 0 -478 0 0
-112z"/>
<path d="M3044 1566 c-2 -6 -3 -292 -1 -636 l2 -625 132 -2 133 -2 2 226 3
226 110 3 c279 5 425 99 481 306 16 63 11 211 -10 268 -47 126 -140 198 -307
236 -48 11 -541 11 -545 0z m514 -238 c61 -31 87 -82 86 -164 -1 -130 -91
-191 -279 -189 l-50 0 -3 180 c-1 99 -1 184 2 190 2 7 38 10 101 9 80 -2 106
-7 143 -26z"/>
<path d="M4626 1570 c-1 -3 -2 -288 -2 -635 l1 -630 132 -2 133 -1 2 251 3
252 207 0 c113 0 209 3 213 7 8 7 9 193 1 206 -3 5 -96 8 -206 8 -111 -1 -206
1 -211 5 -6 3 -8 71 -7 164 l3 159 222 1 c122 0 225 3 229 8 8 8 12 206 4 208
-16 4 -722 3 -724 -1z"/>
<path d="M8150 1125 c1 -479 3 -501 51 -602 12 -27 50 -75 84 -108 95 -94 222
-134 410 -129 134 4 220 28 309 89 92 61 160 166 182 280 4 17 7 229 8 473 1
386 -1 443 -14 446 -8 2 -69 3 -135 2 l-120 -1 -1 -420 c-1 -231 -4 -435 -8
-454 -24 -122 -88 -176 -221 -188 -128 -11 -233 48 -260 147 -13 46 -17 163
-18 505 l-2 410 -133 0 -132 1 0 -451z"/>
</g>
</svg>
